<svg width="371" height="291" viewBox="0 0 371 291" fill="none" xmlns="http://www.w3.org/2000/svg">
<path d="M11.2162 146.445C12.2949 156.369 11.0177 171.894 16.7553 180.5C13.2989 182.228 16.7553 190.404 16.7553 193.74C16.7553 200.685 16.853 208.242 14.7669 214.5C11.25 225.051 17.2392 238.745 23.4306 246.148C39.6607 265.554 63.9386 274.75 88.337 276.826C131.89 280.533 175.353 283.259 219.073 282.01C235.47 281.542 251.564 279.883 267.859 278.388C285.457 276.774 303.552 274.896 319.486 266.671C329.863 261.315 336.34 257.393 344.554 248.705C350.889 242.004 355.83 230.882 357.266 221.791C361.83 192.881 364.848 161.105 359.893 131.958C357.737 119.274 353.869 105.923 347.182 94.8892C338.913 81.2463 333.317 66.6509 325.664 52.7071C316.427 35.8752 291.496 22.6908 273.54 17.6264C264.195 14.9905 254.776 11.5656 244.993 11.0221C233.893 10.4055 222.701 11.6524 211.617 10.6671C192.27 8.94738 172.653 7.60657 153.243 9.03374C141.561 9.89274 130.188 11.7667 118.447 12.3004C99.6764 13.1536 81.544 21.456 63.9083 26.9292C43.3804 33.2999 25.7676 40.7371 14.7669 59.5954C11.2765 65.579 9.57823 75.8132 8.65973 82.8169C7.36467 92.6917 8.37567 103.269 8.37567 113.211C8.37567 124.394 10.0086 135.335 11.2162 146.445Z" fill="#DD572F" stroke="black" stroke-width="16" stroke-linecap="round"/>
<path d="M223.544 228.446L180.53 165.95L174.404 157.054L124.491 84.5347H145.961L186.327 143.183L192.452 152.079L245.014 228.446H223.544ZM253.89 222.341L199.713 143.633L193.588 134.731L154.833 78.4287L151.621 73.7627H104L115.614 90.6393L167.143 165.509L173.268 174.401L214.67 234.557L217.883 239.218H265.504L253.89 222.341Z" fill="white"/>
<path d="M174.59 157.054L180.716 165.95L173.454 174.401L117.739 239.218H104L167.329 165.509L174.59 157.054Z" fill="white"/>
<path d="M259.955 73.7627L199.897 143.633L192.635 152.079L186.51 143.183L193.772 134.731L234.454 87.3794L246.216 73.7627H259.955Z" fill="white"/>
</svg>
