<svg width="371" height="291" viewBox="0 0 371 291" fill="none" xmlns="http://www.w3.org/2000/svg">
<path d="M11.2162 146.445C12.2949 156.369 11.0177 171.894 16.7553 180.5C13.2989 182.228 16.7553 190.404 16.7553 193.74C16.7553 200.685 16.853 208.242 14.7669 214.5C11.25 225.051 17.2392 238.745 23.4306 246.148C39.6607 265.554 63.9386 274.75 88.337 276.826C131.89 280.533 175.353 283.259 219.073 282.01C235.47 281.542 251.564 279.883 267.859 278.388C285.457 276.774 303.552 274.896 319.486 266.671C329.863 261.315 336.34 257.393 344.554 248.705C350.889 242.004 355.83 230.882 357.266 221.791C361.83 192.881 364.848 161.105 359.893 131.958C357.737 119.274 353.869 105.923 347.182 94.8892C338.913 81.2463 333.317 66.6509 325.664 52.7071C316.427 35.8752 291.496 22.6908 273.54 17.6264C264.195 14.9905 254.776 11.5656 244.993 11.0221C233.893 10.4055 222.701 11.6524 211.617 10.6671C192.27 8.94738 172.653 7.60657 153.243 9.03374C141.561 9.89274 130.188 11.7667 118.447 12.3004C99.6764 13.1536 81.544 21.456 63.9083 26.9292C43.3804 33.2999 25.7676 40.7371 14.7669 59.5954C11.2765 65.579 9.57823 75.8132 8.65973 82.8169C7.36467 92.6917 8.37567 103.269 8.37567 113.211C8.37567 124.394 10.0086 135.335 11.2162 146.445Z" fill="#DD572F" stroke="black" stroke-width="16" stroke-linecap="round"/>
<path d="M104 95.3355V148.779L128.216 138.341V109.949L157.026 125.815L182.912 113.289L128.216 83.6448L104 95.3355Z" fill="white"/>
<path d="M185.417 54L144.082 75.7113L171.638 90.3247L185.417 83.2268L198.36 90.3247L227.587 75.7113L185.417 54Z" fill="white"/>
<path d="M244.706 85.3143L215.897 99.0927L234.685 110.783L104 169.654V201.804L124.041 212.242L152.433 198.046L134.897 188.026L266 127.484V96.17L244.706 85.3143Z" fill="white"/>
<path d="M266 200.551V147.943L241.366 158.381V186.355L212.557 171.325L186.67 184.268L242.201 213.077L266 200.551Z" fill="white"/>
<path d="M170.386 208.484L144.082 221.01L185.417 242.722L228.004 221.01L201.7 208.484L185.417 214.747L170.386 208.484Z" fill="white"/>
</svg>
