<svg width="371" height="291" viewBox="0 0 371 291" fill="none" xmlns="http://www.w3.org/2000/svg">
<path d="M11.3156 146.445C12.3943 156.369 11.1171 171.894 16.8546 180.5C13.3982 182.228 16.8546 190.404 16.8546 193.74C16.8546 200.685 16.9524 208.242 14.8663 214.5C11.3493 225.051 17.3386 238.745 23.5299 246.148C39.7601 265.554 64.0379 274.75 88.4364 276.826C131.99 280.533 175.453 283.259 219.172 282.01C235.569 281.542 251.664 279.883 267.959 278.388C285.556 276.774 303.651 274.896 319.586 266.671C329.963 261.315 336.44 257.393 344.653 248.705C350.989 242.004 355.929 230.882 357.365 221.791C361.93 192.881 364.947 161.105 359.992 131.958C357.836 119.274 353.968 105.923 347.281 94.8892C339.013 81.2463 333.416 66.6509 325.764 52.7071C316.527 35.8752 291.596 22.6908 273.64 17.6264C264.294 14.9905 254.876 11.5656 245.092 11.0221C233.993 10.4055 222.801 11.6524 211.716 10.6671C192.37 8.94738 172.752 7.60657 153.343 9.03374C141.66 9.89274 130.287 11.7667 118.546 12.3004C99.7758 13.1536 81.6433 21.456 64.0077 26.9292C43.4797 33.2999 25.8669 40.7371 14.8663 59.5954C11.3759 65.579 9.6776 75.8132 8.75909 82.8169C7.46404 92.6917 8.47504 103.269 8.47504 113.211C8.47504 124.394 10.108 135.335 11.3156 146.445Z" fill="#DD572F" stroke="black" stroke-width="16" stroke-linecap="round"/>
<path d="M266.63 72.3375C265.957 70.367 265.152 69.8485 263.896 69.3558C261.149 68.3447 256.497 69.8744 256.497 69.8744C256.497 69.8744 91.7743 128.678 82.3638 135.186C80.3376 136.586 79.6587 137.416 79.3219 138.375C77.6952 142.99 82.7633 145.038 82.7633 145.038L125.22 158.78C125.22 158.78 126.802 159.013 127.366 158.65C137.025 152.583 224.542 97.7206 229.589 95.8797C230.385 95.6464 230.975 95.9056 230.819 96.4501C228.798 103.502 152.786 170.577 152.786 170.577C152.786 170.577 152.496 170.94 152.313 171.355L152.214 171.303L148.253 213.124C148.253 213.124 146.592 225.932 159.494 213.124C168.596 204.075 177.403 196.505 181.811 192.849C196.41 202.857 212.121 213.928 218.902 219.71C222.307 222.614 225.155 223.08 227.5 223.003C233.936 222.769 235.733 215.743 235.733 215.743C235.733 215.743 265.75 95.776 266.753 79.7009C266.852 78.1193 266.988 77.1341 266.998 76.0451C267.017 74.5413 266.876 73.0375 266.63 72.3375Z" fill="white"/>
</svg>
